<svg xmlns="http://www.w3.org/2000/svg" xmlns:xlink="http://www.w3.org/1999/xlink" version="1.1" id="Layer_1" x="0px" y="0px" viewBox="0 0 660 143" style="enable-background:new 0 0 660 143;" xml:space="preserve">
<style type="text/css">
	.st0{fill:#fff;}
</style>
<g>
	<g>
		<g>
			<path class="st0" d="M374.7,65.3c-3.4-3.2-7.8-4.8-12.6-4.8c-6.3,0-12.5,3.7-15,8.9c-2.2-4.7-6.7-8.9-15-8.9     c-6.8,0-11.4,4.1-12.7,6.7h-0.1v-5.1h-12.7V114h13.1V84.4c0-5.7,2.1-11.5,9-11.5c6.5,0,8.4,5.3,8.4,10.3V114h13.3V83.7     c0-7.4,4.6-10.8,8.8-10.8c5.4,0,8.5,3.8,8.5,10.4v30.8h13.2V81.7C380.9,73.2,377.8,68.2,374.7,65.3z"/>
			<path class="st0" d="M296,65.3c-3.4-3.2-7.8-4.8-12.6-4.8c-6.3,0-12.5,3.7-15,8.9c-2.2-4.7-6.7-8.9-15-8.9     c-6.8,0-11.4,4.1-12.7,6.7h-0.1v-5.1H228V114h13V84.4c0-5.7,2.1-11.5,9-11.5c6.5,0,8.4,5.3,8.4,10.3V114h13.3V83.7     c0-7.4,4.6-10.8,8.8-10.8c5.4,0,8.5,3.8,8.5,10.4v30.8h13.2V81.7C302.2,73.2,299.2,68.2,296,65.3z"/>
			<polygon class="st0" points="181,47.2 134.4,47.2 134.4,59.8 150.5,59.8 150.5,113.9 164.8,113.9 164.8,59.8 181,59.8    "/>
			<polygon class="st0" points="407.1,95.9 394.6,62.1 380,62.1 399.6,113.2 399.8,113.9 392.7,133.5 406.4,133.5 432.6,62.1      418.7,62.1    "/>
			<path class="st0" d="M468.1,47.2v43.5c0,6.7-1.6,10.9-7.1,10.9c-3.4,0-6-1.6-8.9-4l-4.4,12.4c3.2,2.8,9.1,5.4,14.5,5.4     c12.7,0,19.9-9.5,19.9-23.2V47.3L468.1,47.2L468.1,47.2z"/>
			<path class="st0" d="M619.3,60.5c-4.9,0-10.6,2.7-12.8,6.7h-0.1v-5.1h-12.7V114h13.1V85c0-9.6,6.3-12.2,9.7-12.2     c3.6,0,9.8,1.6,9.8,12.2v28.9h13.3V82.7C639.5,67.5,629,60.5,619.3,60.5z"/>
			<path class="st0" d="M569.1,60.5c-5,0-10.2,2.8-12.4,6.5h-0.1V47.2h-13v66.7h13.1V85c0-9.6,6.3-12.2,9.7-12.2     c3.6,0,9.8,1.6,9.8,12.2v28.9h13.3V82.7C589.3,67.5,578.8,60.5,569.1,60.5z"/>
			<g>
				<path class="st0" d="M513,60.5c-15,0-27.1,12.3-27.1,27.4s12.1,27.4,27.1,27.4s27.1-12.3,27.1-27.4S528,60.5,513,60.5z       M513,102.8c-8,0-14.5-6.6-14.5-14.8S505,73.2,513,73.2s14.5,6.6,14.5,14.8C527.5,96.1,521,102.8,513,102.8z"/>
			</g>
			<g>
				<path class="st0" d="M197.4,60.5c-15,0-27.1,12.3-27.1,27.4s12.1,27.4,27.1,27.4s27.1-12.3,27.1-27.4S212.4,60.5,197.4,60.5z       M197.4,102.8c-8,0-14.5-6.6-14.5-14.8s6.5-14.8,14.5-14.8s14.5,6.6,14.5,14.8C211.9,96.1,205.4,102.8,197.4,102.8z"/>
			</g>
		</g>
		<g>
			<path class="st0" d="M643,61.8c-4,0-7.2-3.3-7.2-7.3s3.2-7.3,7.2-7.3c4.1,0,7.3,3.2,7.3,7.3c0,2-0.7,3.8-2.1,5.1     C646.8,61,644.9,61.8,643,61.8z M643,48.9c-3.1,0-5.6,2.5-5.6,5.6c0,3,2.5,5.6,5.6,5.6s5.6-2.4,5.6-5.5c0-1.5-0.6-2.9-1.6-3.9     C645.9,49.5,644.5,48.9,643,48.9z M646.3,57.9h-1.9l-1.3-2.7h-0.8v2.7h-1.7v-7h2.7c1.8,0,3,0.6,3,2.1c0,0.9-0.5,1.6-1.3,1.9     L646.3,57.9z M642.2,52.3v1.5h0.8c1.2,0,1.4-0.2,1.4-0.7s-0.2-0.8-1.4-0.8H642.2z"/>
		</g>
	</g>
	<g>
		<rect x="57.8" y="69.4" class="st0" width="22.3" height="44.5"/>
		<rect x="13.3" y="24.9" class="st0" width="66.8" height="22.3"/>
		<rect x="13.3" y="69.4" class="st0" width="22.3" height="44.5"/>
	</g>
</g>
</svg>
