<svg version="1.1" id="Layer_1" xmlns="http://www.w3.org/2000/svg" xmlns:xlink="http://www.w3.org/1999/xlink" x="0px" y="0px"
	 viewBox="0 0 716.7 195.9" style="enable-background:new 0 0 716.7 195.9;" xml:space="preserve">
<style type="text/css">
	.st0{fill:#FFFFFF;}
</style>
<g>
	<g>
		<g>
			<path class="st0" d="M397.2,72.9c-3.4-3.2-7.8-4.8-12.6-4.8c-6.3,0-12.5,3.7-15,8.9c-2.2-4.7-6.7-8.9-15-8.9
				c-6.8,0-11.4,4.1-12.7,6.7h-0.1v-5.1h-12.7v51.9h13.1V91.9c0-5.7,2.1-11.5,9-11.5c6.5,0,8.4,5.3,8.4,10.3v30.8h13.3V91.2
				c0-7.4,4.6-10.8,8.8-10.8c5.4,0,8.5,3.8,8.5,10.4v30.8h13.2V89.2C403.4,80.8,400.4,75.8,397.2,72.9z"/>
			<path class="st0" d="M318.6,72.9c-3.4-3.2-7.8-4.8-12.6-4.8c-6.3,0-12.5,3.7-15,8.9c-2.2-4.7-6.7-8.9-15-8.9
				c-6.8,0-11.4,4.1-12.7,6.7h-0.1v-5.1h-12.7v51.9h13.1V91.9c0-5.7,2.1-11.5,9-11.5c6.5,0,8.4,5.3,8.4,10.3v30.8h13.3V91.2
				c0-7.4,4.6-10.8,8.8-10.8c5.4,0,8.5,3.8,8.5,10.4v30.8h13.2V89.2C324.8,80.8,321.7,75.8,318.6,72.9z"/>
			<polygon class="st0" points="203.6,54.8 156.9,54.8 156.9,67.4 173.1,67.4 173.1,121.5 187.3,121.5 187.3,67.4 203.6,67.4 			"/>
			<polygon class="st0" points="429.6,103.5 417.1,69.7 402.5,69.7 422.1,120.8 422.3,121.5 415.2,141.1 428.9,141.1 455.1,69.7
				441.2,69.7 			"/>
			<path class="st0" d="M490.6,54.8v43.5c0,6.7-1.6,10.9-7.1,10.9c-3.4,0-6-1.6-8.9-4l-4.4,12.4c3.2,2.8,9.1,5.4,14.5,5.4
				c12.7,0,19.9-9.5,19.9-23.2V54.8H490.6z"/>
			<path class="st0" d="M641.8,68.1c-4.9,0-10.6,2.7-12.8,6.7h-0.1v-5.1h-12.7v51.9h13.1V92.6c0-9.6,6.3-12.2,9.7-12.2
				c3.6,0,9.8,1.6,9.8,12.2v28.9H662V90.3C662,75,651.5,68.1,641.8,68.1z"/>
			<path class="st0" d="M591.6,68.1c-5,0-10.2,2.8-12.4,6.5H579V54.8h-13v66.7h13.1V92.6c0-9.6,6.3-12.2,9.7-12.2
				c3.6,0,9.8,1.6,9.8,12.2v28.9h13.3V90.3C611.8,75,601.3,68.1,591.6,68.1z"/>
			<g>
				<path class="st0" d="M535.5,68.1c-15,0-27.1,12.3-27.1,27.4s12.1,27.4,27.1,27.4c15,0,27.1-12.3,27.1-27.4
					S550.5,68.1,535.5,68.1z M535.5,110.4c-8,0-14.5-6.6-14.5-14.8s6.5-14.8,14.5-14.8c8,0,14.5,6.6,14.5,14.8
					S543.5,110.4,535.5,110.4z"/>
			</g>
			<g>
				<path class="st0" d="M219.9,68.1c-15,0-27.1,12.3-27.1,27.4s12.1,27.4,27.1,27.4c15,0,27.1-12.3,27.1-27.4
					S234.9,68.1,219.9,68.1z M219.9,110.4c-8,0-14.5-6.6-14.5-14.8s6.5-14.8,14.5-14.8c8,0,14.5,6.6,14.5,14.8
					S227.9,110.4,219.9,110.4z"/>
			</g>
		</g>
		<g>
			<path class="st0" d="M665.5,69.3c-4,0-7.2-3.3-7.2-7.3c0-4,3.2-7.3,7.2-7.3c4.1,0,7.3,3.2,7.3,7.3c0,2-0.7,3.8-2.1,5.1
				C669.3,68.6,667.4,69.3,665.5,69.3z M665.5,56.5c-3.1,0-5.6,2.5-5.6,5.6c0,3,2.5,5.6,5.6,5.6c3.1,0,5.6-2.4,5.6-5.5
				c0-1.5-0.6-2.9-1.6-3.9C668.5,57.1,667.1,56.5,665.5,56.5z M668.8,65.5h-1.9l-1.3-2.7h-0.8v2.7H663v-7h2.7c1.8,0,3,0.6,3,2.1
				c0,0.9-0.5,1.6-1.3,1.9L668.8,65.5z M664.7,59.9v1.5h0.8c1.2,0,1.4-0.2,1.4-0.7c0-0.5-0.2-0.8-1.4-0.8H664.7z"/>
		</g>
	</g>
	<g>

			<rect x="77.9" y="96.8" transform="matrix(6.123234e-17 -1 1 6.123234e-17 -10.2572 199.4284)" class="st0" width="33.4" height="16.1"/>
		<rect x="54.3" y="54.8" class="st0" width="48.4" height="16.7"/>

			<rect x="45.6" y="96.8" transform="matrix(6.123234e-17 -1 1 6.123234e-17 -42.5244 167.1612)" class="st0" width="33.4" height="16.1"/>
	</g>
</g>
</svg>
